<?xml version="1.0" encoding="utf-8"?>
<!-- Generator: Adobe Illustrator 22.0.1, SVG Export Plug-In . SVG Version: 6.00 Build 0)  -->
<svg version="1.1" id="Layer_3" xmlns="http://www.w3.org/2000/svg" xmlns:xlink="http://www.w3.org/1999/xlink" x="0px" y="0px"
	 viewBox="0 0 64 64" style="enable-background:new 0 0 64 64;" xml:space="preserve">
<style type="text/css">
	.st0{fill:#FAF5F5;}
	.st1{fill:#63312D;}
	.st2{fill:#F9A287;}
	.st3{fill:#FCB7A4;}
	.st4{fill:#DB785A;}
	.st5{fill:#E0E0E0;}
	.st6{fill:#84DBFF;}
	.st7{fill:#EFC36A;}
	.st8{fill:#F9DD9D;}
	.st9{fill:#EEC26A;}
	.st10{fill:#A9EBFF;}
	.st11{fill:#52BADB;}
	.st12{fill:#FFFFFF;}
	.st13{fill:#F0EEEE;}
	.st14{fill:#BDBDBD;}
	.st15{fill:#E3DFDF;}
	.st16{fill:#FFE8BB;}
	.st17{fill:#FFF2D2;}
	.st18{fill:#D8C18F;}
	.st19{fill:#EAD194;}
	.st20{fill:#BFA064;}
	.st21{fill:#CCCCCC;}
	.st22{fill:#C5F1FF;}
	.st23{fill:#D3A553;}
	.st24{fill:#67C7E5;}
</style>
<g>
	<path class="st6" d="M25.125,28.125H6.083c-1.657,0-3-1.343-3-3V6.083c0-1.657,1.343-3,3-3h19.042c1.657,0,3,1.343,3,3v19.042
		C28.125,26.782,26.782,28.125,25.125,28.125z"/>
	<path class="st6" d="M57.917,28.125H38.875c-1.657,0-3-1.343-3-3V6.083c0-1.657,1.343-3,3-3h19.042c1.657,0,3,1.343,3,3v19.042
		C60.917,26.782,59.574,28.125,57.917,28.125z"/>
	<path class="st6" d="M25.125,60.917H6.083c-1.657,0-3-1.343-3-3V38.875c0-1.657,1.343-3,3-3h19.042c1.657,0,3,1.343,3,3v19.042
		C28.125,59.574,26.782,60.917,25.125,60.917z"/>
	<path class="st6" d="M57.917,60.917H38.875c-1.657,0-3-1.343-3-3V38.875c0-1.657,1.343-3,3-3h19.042c1.657,0,3,1.343,3,3v19.042
		C60.917,59.574,59.574,60.917,57.917,60.917z"/>
	<path class="st1" d="M25.125,28.625H6.083c-1.93,0-3.5-1.57-3.5-3.5V6.083c0-1.93,1.57-3.5,3.5-3.5h19.042c1.93,0,3.5,1.57,3.5,3.5
		v19.042C28.625,27.055,27.055,28.625,25.125,28.625z M6.083,3.583c-1.379,0-2.5,1.121-2.5,2.5v19.042c0,1.379,1.121,2.5,2.5,2.5
		h19.042c1.379,0,2.5-1.121,2.5-2.5V6.083c0-1.379-1.121-2.5-2.5-2.5H6.083z"/>
	<path class="st1" d="M57.917,28.625H38.875c-1.93,0-3.5-1.57-3.5-3.5V6.083c0-1.93,1.57-3.5,3.5-3.5h19.042
		c1.93,0,3.5,1.57,3.5,3.5v19.042C61.417,27.055,59.847,28.625,57.917,28.625z M38.875,3.583c-1.379,0-2.5,1.121-2.5,2.5v19.042
		c0,1.379,1.121,2.5,2.5,2.5h19.042c1.379,0,2.5-1.121,2.5-2.5V6.083c0-1.379-1.121-2.5-2.5-2.5H38.875z"/>
	<path class="st1" d="M25.125,61.417H6.083c-1.93,0-3.5-1.57-3.5-3.5V38.875c0-1.93,1.57-3.5,3.5-3.5h19.042
		c1.93,0,3.5,1.57,3.5,3.5v19.042C28.625,59.847,27.055,61.417,25.125,61.417z M6.083,36.375c-1.379,0-2.5,1.121-2.5,2.5v19.042
		c0,1.379,1.121,2.5,2.5,2.5h19.042c1.379,0,2.5-1.121,2.5-2.5V38.875c0-1.379-1.121-2.5-2.5-2.5H6.083z"/>
	<path class="st1" d="M57.917,61.417H38.875c-1.93,0-3.5-1.57-3.5-3.5V38.875c0-1.93,1.57-3.5,3.5-3.5h19.042
		c1.93,0,3.5,1.57,3.5,3.5v19.042C61.417,59.847,59.847,61.417,57.917,61.417z M38.875,36.375c-1.379,0-2.5,1.121-2.5,2.5v19.042
		c0,1.379,1.121,2.5,2.5,2.5h19.042c1.379,0,2.5-1.121,2.5-2.5V38.875c0-1.379-1.121-2.5-2.5-2.5H38.875z"/>
	<path class="st8" d="M43.667,48.833H16c-1.657,0-3-1.343-3-3V18.167c0-1.657,1.343-3,3-3h27.667c1.657,0,3,1.343,3,3v27.667
		C46.667,47.49,45.324,48.833,43.667,48.833z"/>
	<path class="st16" d="M14.729,47.417V18.75c0-1.105,0.895-2,2-2h28.667c0.352,0,0.686,0.072,1,0.184
		c-0.471-1.04-1.513-1.767-2.729-1.767H16c-1.657,0-3,1.343-3,3v27.667c0,1.305,0.838,2.403,2,2.816
		C14.83,48.273,14.729,47.857,14.729,47.417z"/>
	<path class="st1" d="M43.667,49.333H16c-1.93,0-3.5-1.57-3.5-3.5V18.167c0-1.93,1.57-3.5,3.5-3.5h27.667c1.93,0,3.5,1.57,3.5,3.5
		v27.666C47.167,47.763,45.597,49.333,43.667,49.333z M16,15.667c-1.379,0-2.5,1.121-2.5,2.5v27.666c0,1.379,1.121,2.5,2.5,2.5
		h27.667c1.379,0,2.5-1.121,2.5-2.5V18.167c0-1.379-1.121-2.5-2.5-2.5H16z"/>
	<path class="st7" d="M48,15.167h-4.333c1.657,0,3,1.343,3,3v27.667c0,1.657-1.343,3-3,3H48c1.657,0,3-1.343,3-3V18.167
		C51,16.51,49.657,15.167,48,15.167z"/>
	<path class="st1" d="M48,49.333h-4.333c-0.276,0-0.5-0.224-0.5-0.5s0.224-0.5,0.5-0.5c1.379,0,2.5-1.121,2.5-2.5V18.167
		c0-1.379-1.121-2.5-2.5-2.5c-0.276,0-0.5-0.224-0.5-0.5s0.224-0.5,0.5-0.5H48c1.93,0,3.5,1.57,3.5,3.5v27.666
		C51.5,47.763,49.93,49.333,48,49.333z M46.114,48.333H48c1.379,0,2.5-1.121,2.5-2.5V18.167c0-1.379-1.121-2.5-2.5-2.5h-1.886
		c0.649,0.636,1.053,1.521,1.053,2.5v27.666C47.167,46.812,46.764,47.697,46.114,48.333z"/>
	<path class="st1" d="M38.521,36.417h-1V24.833H22.479v7.421h-1v-7.921c0-0.276,0.224-0.5,0.5-0.5h16.043c0.276,0,0.5,0.224,0.5,0.5
		V36.417z"/>
	<path class="st1" d="M35.292,40.417H24.708c-0.276,0-0.5-0.224-0.5-0.5v-7.604h1v7.104h9.584v-3h1v3.5
		C35.792,40.193,35.568,40.417,35.292,40.417z"/>
	<path class="st1" d="M33.25,36.114h-1V27.75h-4.333v4.563h-1V27.25c0-0.276,0.224-0.5,0.5-0.5h5.333c0.276,0,0.5,0.224,0.5,0.5
		V36.114z"/>
</g>
</svg>
